<svg xmlns="http://www.w3.org/2000/svg" xmlns:xlink="http://www.w3.org/1999/xlink" version="1.1" x="0px" y="0px" viewBox="0 0 100 125" style="enable-background:new 0 0 100 100;" xml:space="preserve"><path d="M40.3170929,78.134819c-9.686161,0-19.3728294-3.68647-26.7472973-11.0604248  c-14.7479181-14.7499619-14.7479181-38.7466774,0-53.4945946C20.7143688,6.4342055,30.2134514,2.5,40.3170929,2.5  c10.1041451,0,19.6032295,3.9342055,26.7472916,11.0797987v-0.0010195c0,0.0010195,0,0.0010195,0,0.0010195  c7.144577,7.1435556,11.0792923,16.6431465,11.0792923,26.7462769c0,10.1041489-3.9347153,19.6027222-11.0792923,26.7472954  C59.6904259,74.448349,50.0037575,78.134819,40.3170929,78.134819z M40.3170929,13.9835167  c-7.0359993,0-13.6514606,2.7403851-18.6270733,7.7154865c-10.2708349,10.2713451-10.2708349,26.9838161,0,37.2551651  c10.2718544,10.2693062,26.9833088,10.2682838,37.2541428,0c4.9756126-4.9761238,7.7159958-11.5915833,7.7159958-18.6280899  s-2.7403831-13.6509495-7.7159958-18.6260529v-0.0010204C53.9685478,16.7239017,47.3535995,13.9835167,40.3170929,13.9835167z" fill="#ffffff" fill-opacity="1"/><path d="M91.7492599,97.5c-1.4695969,0-2.9386749-0.5607224-4.060112-1.6821594L58.9441605,67.0733719  c-2.242363-2.2418594-2.242363-5.8773499,0-8.1192055c2.2418556-2.2428741,5.8773499-2.2428741,8.120224,0l28.7449875,28.7444725  c2.242363,2.2418518,2.242363,5.8773499,0,8.1192017C94.688446,96.9392776,93.2188492,97.5,91.7492599,97.5z" fill="#ffffff" fill-opacity="1"/></svg>